<svg width="171" height="107" viewBox="0 0 171 107" fill="none" xmlns="http://www.w3.org/2000/svg">
<g filter="url(#filter0_d_1_126)">
<rect x="25" y="25" width="57" height="57" rx="28.5" fill="white"/>
</g>
<path fill-rule="evenodd" clip-rule="evenodd" d="M46.7889 44.95H53.3918C56.1529 44.95 58.0807 46.8527 58.0807 49.5795V57.4206C58.0807 60.1473 56.1529 62.05 53.3918 62.05H46.7889C44.0278 62.05 42.1 60.1473 42.1 57.4206V49.5795C42.1 46.8527 44.0278 44.95 46.7889 44.95ZM62.5721 47.6621C63.0725 47.4074 63.6597 47.4341 64.1373 47.735C64.615 48.0347 64.9 48.5555 64.9 49.125V57.8758C64.9 58.4463 64.615 58.966 64.1373 59.2657C63.8763 59.4289 63.5844 59.5123 63.2903 59.5123C63.0452 59.5123 62.8001 59.4544 62.5709 59.3375L60.8826 58.4857C60.2579 58.1686 59.8703 57.532 59.8703 56.8249V50.1747C59.8703 49.4664 60.2579 48.8298 60.8826 48.515L62.5721 47.6621Z" fill="#2C2D5B"/>
<path d="M107.022 53.806C107.638 53.806 108.081 53.659 108.352 53.365C108.622 53.071 108.758 52.6603 108.758 52.133C108.758 51.8997 108.723 51.6873 108.653 51.496C108.583 51.3047 108.475 51.1413 108.331 51.006C108.191 50.866 108.011 50.7587 107.792 50.684C107.577 50.6093 107.32 50.572 107.022 50.572H105.79V53.806H107.022ZM107.022 48.801C107.74 48.801 108.356 48.8873 108.87 49.06C109.388 49.228 109.812 49.4613 110.144 49.76C110.48 50.0587 110.727 50.411 110.886 50.817C111.044 51.223 111.124 51.6617 111.124 52.133C111.124 52.6417 111.042 53.1083 110.879 53.533C110.715 53.9577 110.466 54.3217 110.13 54.625C109.794 54.9283 109.367 55.1663 108.849 55.339C108.335 55.507 107.726 55.591 107.022 55.591H105.79V59H103.424V48.801H107.022ZM114.242 48.521V59H112.072V48.521H114.242ZM119.454 56.046C119.02 56.0647 118.663 56.102 118.383 56.158C118.103 56.214 117.881 56.284 117.718 56.368C117.554 56.452 117.44 56.5477 117.375 56.655C117.314 56.7623 117.284 56.879 117.284 57.005C117.284 57.2523 117.351 57.4273 117.487 57.53C117.622 57.628 117.82 57.677 118.082 57.677C118.362 57.677 118.607 57.628 118.817 57.53C119.027 57.432 119.239 57.2733 119.454 57.054V56.046ZM115.548 52.749C115.986 52.3617 116.472 52.0747 117.004 51.888C117.54 51.6967 118.114 51.601 118.726 51.601C119.164 51.601 119.559 51.6733 119.909 51.818C120.263 51.958 120.562 52.1563 120.805 52.413C121.052 52.665 121.241 52.966 121.372 53.316C121.502 53.666 121.568 54.0487 121.568 54.464V59H120.574C120.368 59 120.212 58.972 120.105 58.916C120.002 58.86 119.916 58.7433 119.846 58.566L119.692 58.167C119.51 58.321 119.335 58.4563 119.167 58.573C118.999 58.6897 118.824 58.79 118.642 58.874C118.464 58.9533 118.273 59.0117 118.068 59.049C117.867 59.091 117.643 59.112 117.396 59.112C117.064 59.112 116.763 59.07 116.493 58.986C116.222 58.8973 115.991 58.769 115.8 58.601C115.613 58.433 115.468 58.2253 115.366 57.978C115.263 57.726 115.212 57.4367 115.212 57.11C115.212 56.8487 115.277 56.585 115.408 56.319C115.538 56.0483 115.765 55.8033 116.087 55.584C116.409 55.36 116.843 55.1733 117.389 55.024C117.935 54.8747 118.623 54.7907 119.454 54.772V54.464C119.454 54.0393 119.365 53.7337 119.188 53.547C119.015 53.3557 118.768 53.26 118.446 53.26C118.189 53.26 117.979 53.288 117.816 53.344C117.652 53.4 117.505 53.463 117.375 53.533C117.249 53.603 117.125 53.666 117.004 53.722C116.882 53.778 116.738 53.806 116.57 53.806C116.42 53.806 116.294 53.7687 116.192 53.694C116.089 53.6193 116.005 53.5307 115.94 53.428L115.548 52.749ZM129.617 51.741L125.739 60.883C125.674 61.0277 125.595 61.1327 125.501 61.198C125.408 61.268 125.259 61.303 125.053 61.303H123.429L124.829 58.363L121.931 51.741H123.849C124.017 51.741 124.146 51.7783 124.234 51.853C124.328 51.9277 124.395 52.0163 124.437 52.119L125.627 55.248C125.739 55.5327 125.83 55.8243 125.9 56.123C125.952 55.9737 126.003 55.8243 126.054 55.675C126.106 55.5257 126.159 55.3787 126.215 55.234L127.293 52.119C127.335 52.0117 127.41 51.923 127.517 51.853C127.625 51.7783 127.741 51.741 127.867 51.741H129.617ZM142.646 53.897C142.646 54.6343 142.518 55.3157 142.261 55.941C142.009 56.5617 141.652 57.1007 141.19 57.558C140.728 58.0107 140.171 58.3653 139.517 58.622C138.869 58.874 138.148 59 137.354 59H133.392V48.801H137.354C138.148 48.801 138.869 48.9293 139.517 49.186C140.171 49.4427 140.728 49.7973 141.19 50.25C141.652 50.7027 142.009 51.2417 142.261 51.867C142.518 52.4877 142.646 53.1643 142.646 53.897ZM140.224 53.897C140.224 53.393 140.159 52.938 140.028 52.532C139.898 52.126 139.709 51.783 139.461 51.503C139.219 51.2183 138.92 51.0013 138.565 50.852C138.211 50.698 137.807 50.621 137.354 50.621H135.772V57.18H137.354C137.807 57.18 138.211 57.1053 138.565 56.956C138.92 56.802 139.219 56.585 139.461 56.305C139.709 56.0203 139.898 55.675 140.028 55.269C140.159 54.863 140.224 54.4057 140.224 53.897ZM148.224 54.499C148.224 54.3263 148.2 54.1583 148.154 53.995C148.112 53.8317 148.039 53.687 147.937 53.561C147.839 53.4303 147.708 53.3253 147.545 53.246C147.381 53.1667 147.183 53.127 146.95 53.127C146.539 53.127 146.217 53.246 145.984 53.484C145.75 53.7173 145.596 54.0557 145.522 54.499H148.224ZM145.494 55.759C145.564 56.3657 145.748 56.8067 146.047 57.082C146.345 57.3527 146.73 57.488 147.202 57.488C147.454 57.488 147.671 57.4577 147.853 57.397C148.035 57.3363 148.196 57.2687 148.336 57.194C148.48 57.1193 148.611 57.0517 148.728 56.991C148.849 56.9303 148.975 56.9 149.106 56.9C149.278 56.9 149.409 56.963 149.498 57.089L150.128 57.866C149.904 58.1227 149.661 58.3327 149.4 58.496C149.143 58.6547 148.877 58.7807 148.602 58.874C148.331 58.9627 148.058 59.0233 147.783 59.056C147.512 59.0933 147.253 59.112 147.006 59.112C146.497 59.112 146.019 59.0303 145.571 58.867C145.127 58.699 144.738 58.4517 144.402 58.125C144.07 57.7983 143.807 57.3923 143.611 56.907C143.419 56.4217 143.324 55.857 143.324 55.213C143.324 54.7277 143.405 54.268 143.569 53.834C143.737 53.4 143.975 53.0197 144.283 52.693C144.595 52.3663 144.971 52.1073 145.41 51.916C145.853 51.7247 146.352 51.629 146.908 51.629C147.388 51.629 147.827 51.7037 148.224 51.853C148.625 52.0023 148.968 52.2193 149.253 52.504C149.542 52.7887 149.766 53.1387 149.925 53.554C150.088 53.9647 150.17 54.4313 150.17 54.954C150.17 55.1173 150.163 55.2503 150.149 55.353C150.135 55.4557 150.109 55.5373 150.072 55.598C150.034 55.6587 149.983 55.7007 149.918 55.724C149.857 55.7473 149.778 55.759 149.68 55.759H145.494ZM151.256 59V51.741H152.6C152.87 51.741 153.048 51.8623 153.132 52.105L153.251 52.497C153.372 52.371 153.498 52.2567 153.629 52.154C153.759 52.0467 153.899 51.9557 154.049 51.881C154.203 51.8017 154.366 51.741 154.539 51.699C154.716 51.6523 154.91 51.629 155.12 51.629C155.558 51.629 155.92 51.7433 156.205 51.972C156.494 52.196 156.713 52.497 156.863 52.875C156.984 52.651 157.131 52.4597 157.304 52.301C157.481 52.1423 157.67 52.014 157.871 51.916C158.076 51.818 158.291 51.7457 158.515 51.699C158.743 51.6523 158.97 51.629 159.194 51.629C159.609 51.629 159.978 51.692 160.3 51.818C160.622 51.9393 160.89 52.119 161.105 52.357C161.324 52.5903 161.49 52.8797 161.602 53.225C161.714 53.5657 161.77 53.953 161.77 54.387V59H159.6V54.387C159.6 53.6357 159.278 53.26 158.634 53.26C158.34 53.26 158.095 53.358 157.899 53.554C157.707 53.7453 157.612 54.023 157.612 54.387V59H155.442V54.387C155.442 53.9717 155.36 53.68 155.197 53.512C155.033 53.344 154.793 53.26 154.476 53.26C154.28 53.26 154.093 53.3043 153.916 53.393C153.743 53.4817 153.58 53.6007 153.426 53.75V59H151.256ZM166.51 51.629C167.06 51.629 167.562 51.7153 168.015 51.888C168.467 52.0607 168.855 52.308 169.177 52.63C169.503 52.952 169.755 53.344 169.933 53.806C170.115 54.2633 170.206 54.779 170.206 55.353C170.206 55.9317 170.115 56.4543 169.933 56.921C169.755 57.383 169.503 57.7773 169.177 58.104C168.855 58.426 168.467 58.6757 168.015 58.853C167.562 59.0257 167.06 59.112 166.51 59.112C165.954 59.112 165.448 59.0257 164.991 58.853C164.538 58.6757 164.146 58.426 163.815 58.104C163.488 57.7773 163.234 57.383 163.052 56.921C162.874 56.4543 162.786 55.9317 162.786 55.353C162.786 54.779 162.874 54.2633 163.052 53.806C163.234 53.344 163.488 52.952 163.815 52.63C164.146 52.308 164.538 52.0607 164.991 51.888C165.448 51.7153 165.954 51.629 166.51 51.629ZM166.51 57.502C167.009 57.502 167.375 57.327 167.609 56.977C167.847 56.6223 167.966 56.0857 167.966 55.367C167.966 54.6483 167.847 54.114 167.609 53.764C167.375 53.414 167.009 53.239 166.51 53.239C165.996 53.239 165.621 53.414 165.383 53.764C165.145 54.114 165.026 54.6483 165.026 55.367C165.026 56.0857 165.145 56.6223 165.383 56.977C165.621 57.327 165.996 57.502 166.51 57.502Z" fill="#2C2D5B"/>
<defs>
<filter id="filter0_d_1_126" x="0" y="0" width="107" height="107" filterUnits="userSpaceOnUse" color-interpolation-filters="sRGB">
<feFlood flood-opacity="0" result="BackgroundImageFix"/>
<feColorMatrix in="SourceAlpha" type="matrix" values="0 0 0 0 0 0 0 0 0 0 0 0 0 0 0 0 0 0 127 0" result="hardAlpha"/>
<feOffset/>
<feGaussianBlur stdDeviation="12.5"/>
<feComposite in2="hardAlpha" operator="out"/>
<feColorMatrix type="matrix" values="0 0 0 0 0.592 0 0 0 0 0.592 0 0 0 0 0.592 0 0 0 0.25 0"/>
<feBlend mode="normal" in2="BackgroundImageFix" result="effect1_dropShadow_1_126"/>
<feBlend mode="normal" in="SourceGraphic" in2="effect1_dropShadow_1_126" result="shape"/>
</filter>
</defs>
</svg>
